# xmcd
#
# Track frame offsets: 
#        150
#        11929
#        27542
#        47039
#        60887
#        77565
#        87646
#        104773
#        124668
#        145088
#        158285
#
# Disc length: 2169 seconds
#
# Revision: 2
# Processed by: cddbd v1.5PL3 Copyright (c) Steve Scherf et al.
# Submitted via: ExactAudioCopy v0.95a4
#
DISCID=8908770b
DTITLE=Belleville - My Friends Are My Estate
DYEAR=1900
DGENRE=country
TTITLE0=Light
TTITLE1=Wait to Stop
TTITLE2=Sunday
TTITLE3=TFT
TTITLE4=Shy
TTITLE5=Cabin in the Pines
TTITLE6=Cue
TTITLE7=The Crying Shame
TTITLE8=Skinny Boy
TTITLE9=Out On The Side
TTITLE10=My Friends Ar My Estate
EXTD=
EXTT0=
EXTT1=
EXTT2=
EXTT3=
EXTT4=
EXTT5=
EXTT6=
EXTT7=
EXTT8=
EXTT9=
EXTT10=
PLAYORDER=
